# xmcd CD database file
#
# Track frame offsets:
#	150
#	24429
#	65715
#	109483
#	136610
#	171283
#	201627
#	240761
#
# Disc length: 3827 seconds
#
# Revision: 0
# Processed by: cddbd v1.5.1PL0 Copyright (c) Steve Scherf et al.
# Submitted via: CDex 1.50
#
DISCID=6d0ef108
DTITLE=Don Pullen - Mosaic Select 13 Disc 3
DYEAR=2005
DGENRE=Jazz
TTITLE0=Andre's Ups And Downs
TTITLE1=Random Thoughts
TTITLE2=Indio Gitano
TTITLE3=The Dancer (For Diane McIntyre)
TTITLE4=Endangered Species, African American Youth
TTITLE5=626 Fairfax
TTITLE6=Ode To Life (For Maurice Quesnell)
TTITLE7=Silence Equals Death
EXTD=YEAR: 2005
EXTT0=
EXTT1=
EXTT2=
EXTT3=
EXTT4=
EXTT5=
EXTT6=
EXTT7=
PLAYORDER=
